<?xml version="1.0" encoding="UTF-8"?><svg xmlns="http://www.w3.org/2000/svg" xmlns:xlink="http://www.w3.org/1999/xlink" fill-opacity="1" color-rendering="auto" color-interpolation="auto" text-rendering="auto" stroke="black" stroke-linecap="square" width="951" stroke-miterlimit="10" shape-rendering="auto" stroke-opacity="1" fill="black" stroke-dasharray="none" font-weight="normal" stroke-width="1" height="703" font-family="'Dialog'" font-style="normal" stroke-linejoin="miter" font-size="12px" stroke-dashoffset="0" image-rendering="auto">
  <!--Generated by ySVG 2.5-->
  <defs id="genericDefs"/>
  <g>
    <defs id="defs1">
      <clipPath clipPathUnits="userSpaceOnUse" id="clipPath1">
        <path d="M0 0 L951 0 L951 703 L0 703 L0 0 Z"/>
      </clipPath>
      <clipPath clipPathUnits="userSpaceOnUse" id="clipPath2">
        <path d="M-263 -164 L688 -164 L688 539 L-263 539 L-263 -164 Z"/>
      </clipPath>
      <clipPath clipPathUnits="userSpaceOnUse" id="clipPath3">
        <path d="M-240 -149 L-240 48 L-46 48 L-46 -149 Z"/>
      </clipPath>
      <clipPath clipPathUnits="userSpaceOnUse" id="clipPath4">
        <path d="M48 250 L48 376 L295 376 L295 250 Z"/>
      </clipPath>
      <clipPath clipPathUnits="userSpaceOnUse" id="clipPath5">
        <path d="M451 112 L451 237 L649 237 L649 112 Z"/>
      </clipPath>
      <clipPath clipPathUnits="userSpaceOnUse" id="clipPath6">
        <path d="M461 399 L461 524 L613 524 L613 399 Z"/>
      </clipPath>
      <clipPath clipPathUnits="userSpaceOnUse" id="clipPath7">
        <path d="M-236 152 L-236 453 L-46 453 L-46 152 Z"/>
      </clipPath>
      <clipPath clipPathUnits="userSpaceOnUse" id="clipPath8">
        <path d="M426 262 L426 364 L673 364 L673 262 Z"/>
      </clipPath>
    </defs>
    <g fill="white" text-rendering="geometricPrecision" shape-rendering="geometricPrecision" transform="translate(263,164)" stroke="white">
      <rect x="-263" width="951" height="703" y="-164" clip-path="url(#clipPath2)" stroke="none"/>
    </g>
    <g fill="rgb(96,125,139)" text-rendering="geometricPrecision" shape-rendering="geometricPrecision" transform="matrix(1,0,0,1,263,164)" stroke="rgb(96,125,139)">
      <rect x="-240" width="194" height="197" y="-149" clip-path="url(#clipPath2)" stroke="none"/>
    </g>
    <g stroke-linecap="butt" transform="matrix(1,0,0,1,263,164)" fill="white" text-rendering="geometricPrecision" shape-rendering="geometricPrecision" stroke="white" stroke-miterlimit="1.45">
      <rect fill="none" x="-240" width="194" height="197" y="-149" clip-path="url(#clipPath2)"/>
      <text x="-180.3464" font-size="13px" y="-131.9331" clip-path="url(#clipPath3)" font-family="sans-serif" stroke="none" font-weight="bold" xml:space="preserve">cap_alerts</text>
      <line stroke-linecap="square" clip-path="url(#clipPath3)" fill="none" x1="-239" x2="-47" y1="-123" y2="-123" stroke-miterlimit="10"/>
      <text x="-235" xml:space="preserve" y="-107.7285" clip-path="url(#clipPath3)" font-family="sans-serif" stroke="none">reference: varchar</text>
      <text x="-235" xml:space="preserve" y="-93.7598" clip-path="url(#clipPath3)" font-family="sans-serif" stroke="none">cap_sender: varchar</text>
      <text x="-235" xml:space="preserve" y="-79.791" clip-path="url(#clipPath3)" font-family="sans-serif" stroke="none">cap_sent: timestamp</text>
      <text x="-235" xml:space="preserve" y="-65.8223" clip-path="url(#clipPath3)" font-family="sans-serif" stroke="none">cap_status: varchar</text>
      <text x="-235" xml:space="preserve" y="-51.8535" clip-path="url(#clipPath3)" font-family="sans-serif" stroke="none">cap_message_type: varchar</text>
      <text x="-235" xml:space="preserve" y="-37.8848" clip-path="url(#clipPath3)" font-family="sans-serif" stroke="none">cap_scope: varchar</text>
      <text x="-235" xml:space="preserve" y="-23.916" clip-path="url(#clipPath3)" font-family="sans-serif" stroke="none">cap_code: varchar</text>
      <text x="-235" xml:space="preserve" y="-9.9473" clip-path="url(#clipPath3)" font-family="sans-serif" stroke="none">cap_restriction: varchar</text>
      <text x="-235" xml:space="preserve" y="4.0215" clip-path="url(#clipPath3)" font-family="sans-serif" stroke="none">cap_references: varchar</text>
      <text x="-235" xml:space="preserve" y="17.9902" clip-path="url(#clipPath3)" font-family="sans-serif" stroke="none">cap_id: varchar</text>
      <line stroke-linecap="square" clip-path="url(#clipPath3)" fill="none" x1="-239" x2="-47" y1="25" y2="25" stroke-miterlimit="10"/>
    </g>
    <g fill="rgb(96,125,139)" text-rendering="geometricPrecision" shape-rendering="geometricPrecision" transform="matrix(1,0,0,1,263,164)" stroke="rgb(96,125,139)">
      <rect x="48" width="247" height="126" y="250" clip-path="url(#clipPath2)" stroke="none"/>
    </g>
    <g stroke-linecap="butt" transform="matrix(1,0,0,1,263,164)" fill="white" text-rendering="geometricPrecision" shape-rendering="geometricPrecision" stroke="white" stroke-miterlimit="1.45">
      <rect fill="none" x="48" width="247" height="126" y="250" clip-path="url(#clipPath2)"/>
      <text x="135.1025" font-size="13px" y="267.0669" clip-path="url(#clipPath4)" font-family="sans-serif" stroke="none" font-weight="bold" xml:space="preserve">cap_areas</text>
      <line stroke-linecap="square" clip-path="url(#clipPath4)" fill="none" x1="49" x2="294" y1="275" y2="275" stroke-miterlimit="10"/>
      <text x="53" xml:space="preserve" y="291.2715" clip-path="url(#clipPath4)" font-family="sans-serif" stroke="none">cap_area_desc: varchar</text>
      <text x="53" xml:space="preserve" y="305.2402" clip-path="url(#clipPath4)" font-family="sans-serif" stroke="none">cap_area_altitude: double precision</text>
      <text x="53" xml:space="preserve" y="319.209" clip-path="url(#clipPath4)" font-family="sans-serif" stroke="none">cap_area_ceiling: double precision</text>
      <text x="53" xml:space="preserve" y="333.1777" clip-path="url(#clipPath4)" font-family="sans-serif" stroke="none">cap_info_id: integer</text>
      <text x="53" xml:space="preserve" y="347.1465" clip-path="url(#clipPath4)" font-family="sans-serif" stroke="none">id: integer</text>
      <line stroke-linecap="square" clip-path="url(#clipPath4)" fill="none" x1="49" x2="294" y1="354" y2="354" stroke-miterlimit="10"/>
    </g>
    <g fill="rgb(96,125,139)" text-rendering="geometricPrecision" shape-rendering="geometricPrecision" transform="matrix(1,0,0,1,263,164)" stroke="rgb(96,125,139)">
      <rect x="451" width="198" height="125" y="112" clip-path="url(#clipPath2)" stroke="none"/>
    </g>
    <g stroke-linecap="butt" transform="matrix(1,0,0,1,263,164)" fill="white" text-rendering="geometricPrecision" shape-rendering="geometricPrecision" stroke="white" stroke-miterlimit="1.45">
      <rect fill="none" x="451" width="198" height="125" y="112" clip-path="url(#clipPath2)"/>
      <text x="510.2129" font-size="13px" y="129.0669" clip-path="url(#clipPath5)" font-family="sans-serif" stroke="none" font-weight="bold" xml:space="preserve">cap_circles</text>
      <line stroke-linecap="square" clip-path="url(#clipPath5)" fill="none" x1="452" x2="648" y1="137" y2="137" stroke-miterlimit="10"/>
      <text x="456" xml:space="preserve" y="153.2715" clip-path="url(#clipPath5)" font-family="sans-serif" stroke="none">radius: double precision</text>
      <text x="456" xml:space="preserve" y="167.2402" clip-path="url(#clipPath5)" font-family="sans-serif" stroke="none">cap_area_id: integer</text>
      <text x="456" xml:space="preserve" y="181.209" clip-path="url(#clipPath5)" font-family="sans-serif" stroke="none">id: integer</text>
      <line stroke-linecap="square" clip-path="url(#clipPath5)" fill="none" x1="452" x2="648" y1="189" y2="189" stroke-miterlimit="10"/>
      <text x="456" xml:space="preserve" y="205.1777" clip-path="url(#clipPath5)" font-family="sans-serif" stroke="none">geom: geometry(point,4326)</text>
    </g>
    <g fill="rgb(96,125,139)" text-rendering="geometricPrecision" shape-rendering="geometricPrecision" transform="matrix(1,0,0,1,263,164)" stroke="rgb(96,125,139)">
      <rect x="461" width="152" height="125" y="399" clip-path="url(#clipPath2)" stroke="none"/>
    </g>
    <g stroke-linecap="butt" transform="matrix(1,0,0,1,263,164)" fill="white" text-rendering="geometricPrecision" shape-rendering="geometricPrecision" stroke="white" stroke-miterlimit="1.45">
      <rect fill="none" x="461" width="152" height="125" y="399" clip-path="url(#clipPath2)"/>
      <text x="486.0823" font-size="13px" y="416.0669" clip-path="url(#clipPath6)" font-family="sans-serif" stroke="none" font-weight="bold" xml:space="preserve">cap_geocodes</text>
      <line stroke-linecap="square" clip-path="url(#clipPath6)" fill="none" x1="462" x2="612" y1="424" y2="424" stroke-miterlimit="10"/>
      <text x="466" xml:space="preserve" y="440.2715" clip-path="url(#clipPath6)" font-family="sans-serif" stroke="none">valueName: varchar</text>
      <text x="466" xml:space="preserve" y="454.2402" clip-path="url(#clipPath6)" font-family="sans-serif" stroke="none">value: varchar</text>
      <text x="466" xml:space="preserve" y="468.209" clip-path="url(#clipPath6)" font-family="sans-serif" stroke="none">cap_area_id: integer</text>
      <text x="466" xml:space="preserve" y="482.1777" clip-path="url(#clipPath6)" font-family="sans-serif" stroke="none">id: integer</text>
      <line stroke-linecap="square" clip-path="url(#clipPath6)" fill="none" x1="462" x2="612" y1="490" y2="490" stroke-miterlimit="10"/>
    </g>
    <g fill="rgb(96,125,139)" text-rendering="geometricPrecision" shape-rendering="geometricPrecision" transform="matrix(1,0,0,1,263,164)" stroke="rgb(96,125,139)">
      <rect x="-236" width="190" height="301" y="152.8495" clip-path="url(#clipPath2)" stroke="none"/>
    </g>
    <g stroke-linecap="butt" transform="matrix(1,0,0,1,263,164)" fill="white" text-rendering="geometricPrecision" shape-rendering="geometricPrecision" stroke="white" stroke-miterlimit="1.45">
      <rect fill="none" x="-236" width="190" height="301" y="152.8495" clip-path="url(#clipPath2)"/>
      <text x="-171.291" font-size="13px" y="169.9164" clip-path="url(#clipPath7)" font-family="sans-serif" stroke="none" font-weight="bold" xml:space="preserve">cap_info</text>
      <line stroke-linecap="square" clip-path="url(#clipPath7)" fill="none" x1="-235" x2="-47" y1="177" y2="177" stroke-miterlimit="10"/>
      <text x="-231" xml:space="preserve" y="194.121" clip-path="url(#clipPath7)" font-family="sans-serif" stroke="none">cap_language: varchar</text>
      <text x="-231" xml:space="preserve" y="208.0897" clip-path="url(#clipPath7)" font-family="sans-serif" stroke="none">cap_category: varchar</text>
      <text x="-231" xml:space="preserve" y="222.0585" clip-path="url(#clipPath7)" font-family="sans-serif" stroke="none">cap_event: varchar</text>
      <text x="-231" xml:space="preserve" y="236.0272" clip-path="url(#clipPath7)" font-family="sans-serif" stroke="none">cap_urgency: varchar</text>
      <text x="-231" xml:space="preserve" y="249.996" clip-path="url(#clipPath7)" font-family="sans-serif" stroke="none">cap_severity: varchar</text>
      <text x="-231" xml:space="preserve" y="263.9647" clip-path="url(#clipPath7)" font-family="sans-serif" stroke="none">cap_certainty: varchar</text>
      <text x="-231" xml:space="preserve" y="277.9335" clip-path="url(#clipPath7)" font-family="sans-serif" stroke="none">cap_onset: timestamp</text>
      <text x="-231" xml:space="preserve" y="291.9022" clip-path="url(#clipPath7)" font-family="sans-serif" stroke="none">cap_sender_name: varchar</text>
      <text x="-231" xml:space="preserve" y="305.871" clip-path="url(#clipPath7)" font-family="sans-serif" stroke="none">cap_expires: timestamp</text>
      <text x="-231" xml:space="preserve" y="319.8397" clip-path="url(#clipPath7)" font-family="sans-serif" stroke="none">cap_headline: varchar</text>
      <text x="-231" xml:space="preserve" y="333.8085" clip-path="url(#clipPath7)" font-family="sans-serif" stroke="none">cap_description: varchar</text>
      <text x="-231" xml:space="preserve" y="347.7772" clip-path="url(#clipPath7)" font-family="sans-serif" stroke="none">cap_instruction: varchar</text>
      <text x="-231" xml:space="preserve" y="361.746" clip-path="url(#clipPath7)" font-family="sans-serif" stroke="none">cap_web: varchar</text>
      <text x="-231" xml:space="preserve" y="375.7147" clip-path="url(#clipPath7)" font-family="sans-serif" stroke="none">cap_contact: varchar</text>
      <text x="-231" xml:space="preserve" y="389.6835" clip-path="url(#clipPath7)" font-family="sans-serif" stroke="none">cap_alert_cap_id: varchar</text>
      <text x="-231" xml:space="preserve" y="403.6522" clip-path="url(#clipPath7)" font-family="sans-serif" stroke="none">id: integer</text>
      <line stroke-linecap="square" clip-path="url(#clipPath7)" fill="none" x1="-235" x2="-47" y1="411" y2="411" stroke-miterlimit="10"/>
    </g>
    <g fill="rgb(96,125,139)" text-rendering="geometricPrecision" shape-rendering="geometricPrecision" transform="matrix(1,0,0,1,263,164)" stroke="rgb(96,125,139)">
      <rect x="426" width="247" height="102" y="262" clip-path="url(#clipPath2)" stroke="none"/>
    </g>
    <g stroke-linecap="butt" transform="matrix(1,0,0,1,263,164)" fill="white" text-rendering="geometricPrecision" shape-rendering="geometricPrecision" stroke="white" stroke-miterlimit="1.45">
      <rect fill="none" x="426" width="247" height="102" y="262" clip-path="url(#clipPath2)"/>
      <text x="500.1597" font-size="13px" y="279.0669" clip-path="url(#clipPath8)" font-family="sans-serif" stroke="none" font-weight="bold" xml:space="preserve">cap_polygons</text>
      <line stroke-linecap="square" clip-path="url(#clipPath8)" fill="none" x1="427" x2="672" y1="287" y2="287" stroke-miterlimit="10"/>
      <text x="431" xml:space="preserve" y="303.2715" clip-path="url(#clipPath8)" font-family="sans-serif" stroke="none">cap_area_id: integer</text>
      <text x="431" xml:space="preserve" y="317.2402" clip-path="url(#clipPath8)" font-family="sans-serif" stroke="none">id: integer</text>
      <line stroke-linecap="square" clip-path="url(#clipPath8)" fill="none" x1="427" x2="672" y1="325" y2="325" stroke-miterlimit="10"/>
      <text x="431" xml:space="preserve" y="341.209" clip-path="url(#clipPath8)" font-family="sans-serif" stroke="none">geom: geometry(multipolygon,4326)</text>
      <path fill="none" stroke-miterlimit="10" d="M450.9721 174.5004 L345 174.1981 L340.625 174.8107 L337.5 176.6767 L335.625 179.7964 L335 184.1696 L335 302.836 L334.375 307.2136 L332.5 310.3463 L329.3751 312.2341 L325.0001 312.8771 L306.039 312.955" clip-path="url(#clipPath2)" stroke="rgb(89,89,89)"/>
      <path fill="rgb(89,89,89)" stroke-miterlimit="10" d="M295.0391 313.0002 L307.0636 318.9509 L307.0143 306.951 Z" clip-path="url(#clipPath2)" stroke="none"/>
      <rect x="344.3852" y="180.7161" clip-path="url(#clipPath2)" width="61.6914" height="13.3125" stroke="none" stroke-miterlimit="10"/>
      <rect stroke-linecap="square" x="344.3852" y="180.7161" clip-path="url(#clipPath2)" fill="none" width="61.6914" height="13.3125" stroke-miterlimit="1.6"/>
      <text x="346.3852" font-size="8px" y="190.1419" clip-path="url(#clipPath2)" fill="black" stroke="none" xml:space="preserve">cap_area_id:id</text>
      <path fill="none" stroke-miterlimit="10" d="M460.9697 461.4996 L344.9999 461.1317 L340.625 460.4928 L337.5 458.6079 L335.625 455.477 L335 451.1 L335 322.836 L334.375 318.4636 L332.5 315.3463 L329.3751 313.4841 L325.0001 312.8771 L306.039 312.955" clip-path="url(#clipPath2)" stroke="rgb(89,89,89)"/>
      <path fill="rgb(89,89,89)" stroke-miterlimit="10" d="M295.0391 313.0002 L307.0636 318.9509 L307.0143 306.951 Z" clip-path="url(#clipPath2)" stroke="none"/>
      <rect x="349.383" y="467.6851" clip-path="url(#clipPath2)" width="61.6914" height="13.3125" stroke="none" stroke-miterlimit="10"/>
      <rect stroke-linecap="square" x="349.383" y="467.6851" clip-path="url(#clipPath2)" fill="none" width="61.6914" height="13.3125" stroke-miterlimit="1.6"/>
      <text x="351.383" font-size="8px" y="477.1109" clip-path="url(#clipPath2)" fill="black" stroke="none" xml:space="preserve">cap_area_id:id</text>
      <path fill="none" stroke-miterlimit="10" d="M47.9541 303.3495 L-34.9541 303.3495" clip-path="url(#clipPath2)" stroke="rgb(89,89,89)"/>
      <path fill="rgb(89,89,89)" stroke-miterlimit="10" d="M-45.9541 303.3495 L-33.9541 309.3495 L-33.9541 297.3495 Z" clip-path="url(#clipPath2)" stroke="none"/>
      <rect x="-28.3398" y="309.6932" clip-path="url(#clipPath2)" width="58.6797" height="13.3125" stroke="none" stroke-miterlimit="10"/>
      <rect stroke-linecap="square" x="-28.3398" y="309.6932" clip-path="url(#clipPath2)" fill="none" width="58.6797" height="13.3125" stroke-miterlimit="1.6"/>
      <text x="-26.3398" font-size="8px" y="319.119" clip-path="url(#clipPath2)" fill="black" stroke="none" xml:space="preserve">cap_info_id:id</text>
      <path fill="none" stroke-miterlimit="10" d="M-141.0005 152.8239 L-142.7897 59.0236" clip-path="url(#clipPath2)" stroke="rgb(89,89,89)"/>
      <path fill="rgb(89,89,89)" stroke-miterlimit="10" d="M-142.9995 48.0256 L-148.7696 60.1378 L-136.7717 59.909 Z" clip-path="url(#clipPath2)" stroke="none"/>
      <rect x="-247.2137" y="102.3891" clip-path="url(#clipPath2)" width="98.9062" height="13.3125" stroke="none" stroke-miterlimit="10"/>
      <rect stroke-linecap="square" x="-247.2137" y="102.3891" clip-path="url(#clipPath2)" fill="none" width="98.9062" height="13.3125" stroke-miterlimit="1.6"/>
      <text x="-245.2137" font-size="8px" y="111.8149" clip-path="url(#clipPath2)" fill="black" stroke="none" xml:space="preserve">cap_alert_cap_id:cap_id</text>
      <path fill="none" stroke-miterlimit="10" d="M426 313.0004 L345 312.8539 L335 312.8359 L335 312.8359 L325.0001 312.8771 L306.039 312.955" clip-path="url(#clipPath2)" stroke="rgb(89,89,89)"/>
      <path fill="rgb(89,89,89)" stroke-miterlimit="10" d="M295.0391 313.0002 L307.0636 318.9509 L307.0143 306.951 Z" clip-path="url(#clipPath2)" stroke="none"/>
      <rect x="331.8922" y="319.2855" clip-path="url(#clipPath2)" width="61.6914" height="13.3125" stroke="none" stroke-miterlimit="10"/>
      <rect stroke-linecap="square" x="331.8922" y="319.2855" clip-path="url(#clipPath2)" fill="none" width="61.6914" height="13.3125" stroke-miterlimit="1.6"/>
      <text x="333.8922" font-size="8px" y="328.7113" clip-path="url(#clipPath2)" fill="black" stroke="none" xml:space="preserve">cap_area_id:id</text>
    </g>
  </g>
</svg>
